<svg id="레이어_1" data-name="레이어 1" xmlns="http://www.w3.org/2000/svg" viewBox="0 0 512 512"><defs><style>.cls-1{fill:#ffb300;}.cls-2{fill:#fff;}.cls-3,.cls-4{fill:none;stroke:#fff;stroke-miterlimit:10;}.cls-3{stroke-width:9px;}.cls-4{stroke-width:6px;}</style></defs><title>svg대지 1</title><rect class="cls-1" x="58" y="49" width="396" height="396" rx="40" ry="40"/><path class="cls-2" d="M272.5,203.1a3.67,3.67,0,0,0-3.67,3.67v41.68h-9.35V206.77a3.67,3.67,0,1,0-7.34,0v41.68h-9.35V206.77a3.67,3.67,0,1,0-7.33,0v53.11a10.86,10.86,0,0,0,10.84,10.85H247l-5.14,77.37a14,14,0,1,0,28,0l-5.14-77.37h.65a10.87,10.87,0,0,0,10.85-10.85V206.77A3.67,3.67,0,0,0,272.5,203.1ZM260.7,353.61a6.69,6.69,0,0,1-11.57-5l5.18-77.87h3l5.18,77.87A6.61,6.61,0,0,1,260.7,353.61Zm8.13-93.73a3.52,3.52,0,0,1-3.51,3.51h-19a3.52,3.52,0,0,1-3.51-3.51v-4.09h26Z"/><path class="cls-2" d="M237.1,172.38H173.31c-7.24,0-13.13,5.11-13.13,11.4s5.89,11.41,13.13,11.41h59.42c.15,4.35,4.26,7.85,9.3,7.85h57.48c21,0,40.21-9.29,51.28-24.85a3.53,3.53,0,0,0-1.43-5.24,4.91,4.91,0,0,0-2.87-.54v0H237.1Zm4.39,7.62h96.92c-9.69,9.76-23.73,15.41-38.91,15.41H242a.51.51,0,0,1-.54-.47Zm-68.18,0h59.41v7.57H173.31a3.82,3.82,0,1,1,0-7.57Z"/><circle class="cls-3" cx="255.58" cy="255.58" r="172.63"/><circle class="cls-4" cx="255.58" cy="255.58" r="154.29"/></svg>